<svg width="28" height="28" viewBox="0 0 28 28" fill="none" xmlns="http://www.w3.org/2000/svg">
<path d="M13.9998 3.5C16.2375 3.5 18.1065 5.075 18.5615 7.17617C19.7563 6.85282 21.0307 7.01737 22.1042 7.63359C23.1777 8.24982 23.9624 9.26726 24.2858 10.4621C24.6091 11.6569 24.4446 12.9312 23.8283 14.0047C23.2121 15.0782 22.1947 15.863 20.9998 16.1863V24.5H6.99984V16.1863C6.40822 16.0261 5.85397 15.7509 5.36871 15.3764C4.88346 15.0019 4.47671 14.5356 4.17169 14.0039C3.86668 13.4723 3.66936 12.8857 3.59102 12.2778C3.51267 11.6699 3.55483 11.0525 3.71509 10.4609C3.87535 9.8693 4.15056 9.31504 4.52502 8.82979C4.89948 8.34453 5.36585 7.93779 5.89751 7.63277C6.42916 7.32775 7.01568 7.13044 7.62359 7.05209C8.2315 6.97375 8.84889 7.01591 9.44051 7.17617C9.66665 6.13499 10.2423 5.20255 11.0717 4.53379C11.9011 3.86504 12.9344 3.50023 13.9998 3.5Z" stroke="white" stroke-width="2.33333" stroke-linecap="round" stroke-linejoin="round"/>
<path d="M7.1875 19.8438L20.9997 19.8333" stroke="white" stroke-width="2.33333" stroke-linecap="round" stroke-linejoin="round"/>
</svg>
