<svg width="32" height="32" viewBox="0 0 32 32" fill="none" xmlns="http://www.w3.org/2000/svg">
<path d="M15.9998 5.5C18.2375 5.5 20.1065 7.075 20.5615 9.17617C21.7563 8.85282 23.0307 9.01737 24.1042 9.63359C25.1777 10.2498 25.9624 11.2673 26.2858 12.4621C26.6091 13.6569 26.4446 14.9312 25.8283 16.0047C25.2121 17.0782 24.1947 17.863 22.9998 18.1863V26.5H8.99984V18.1863C8.40822 18.0261 7.85397 17.7509 7.36871 17.3764C6.88346 17.0019 6.47671 16.5356 6.17169 16.0039C5.86668 15.4723 5.66936 14.8857 5.59102 14.2778C5.51267 13.6699 5.55483 13.0525 5.71509 12.4609C5.87535 11.8693 6.15056 11.315 6.52502 10.8298C6.89948 10.3445 7.36585 9.93779 7.89751 9.63277C8.42916 9.32775 9.01568 9.13044 9.62359 9.05209C10.2315 8.97375 10.8489 9.01591 11.4405 9.17617C11.6666 8.13499 12.2423 7.20255 13.0717 6.53379C13.9011 5.86504 14.9344 5.50023 15.9998 5.5Z" stroke="#C2410C" stroke-width="2.33333" stroke-linecap="round" stroke-linejoin="round"/>
<path d="M9.1875 21.8438L22.9997 21.8333" stroke="#C2410C" stroke-width="2.33333" stroke-linecap="round" stroke-linejoin="round"/>
</svg>
